<?xml version="1.0" standalone="no"?><!DOCTYPE svg PUBLIC "-//W3C//DTD SVG 1.1//EN" "http://www.w3.org/Graphics/SVG/1.1/DTD/svg11.dtd"><svg width="200" height="200" viewBox="0 0 200 200" version="1.1" xmlns="http://www.w3.org/2000/svg" xmlns:xlink="http://www.w3.org/1999/xlink"><defs><style type="text/css"><![CDATA[
@font-face { font-family: ifont; src: url(http://at.alicdn.com/t/font_1442373896_4754455.eot?#iefix) format(embedded-opentype), url(http://at.alicdn.com/t/font_1442373896_4754455.woff) format(woff), url(http://at.alicdn.com/t/font_1442373896_4754455.ttf) format(truetype), url(http://at.alicdn.com/t/font_1442373896_4754455.svg#ifont) format(svg); }

]]></style></defs><g class="transform-group"><g transform="scale(0.1953125, 0.1953125)"><path d="M672.183 984.455c-131.101 0-169.062-17.779-213.016-38.367-31.516-14.761-66.854-31.313-154.322-42.633l0 24.949L167.749 928.404c-23.197 0-45.206-13.059-60.385-35.829-13.324-19.985-20.662-45.997-20.662-73.241L86.702 483.041c0-27.244 7.337-53.256 20.661-73.244 15.18-22.772 37.189-35.833 60.386-35.833l137.095 0 0 18.81c91.205-30.877 177.978-75.259 241.939-124.133 38.139-29.143 66.716-58.678 84.938-87.784 18.39-29.374 25.571-57.599 21.346-83.891-2.306-14.347 2.438-30.095 12.69-42.126 9.291-10.903 21.847-17.156 34.448-17.156 28.613 0 70.359 14.717 93.844 56.194 17.614 31.111 21.814 71.47 12.482 119.956-8.828 45.87-30.028 99.6-63.151 160.141l124.973 0c26.048 0 47.994 11.833 61.797 33.319 10.64 16.564 16.265 38.535 16.265 63.538 0 36.064-11.407 73.896-31.514 97.523 0.424 0.688 0.838 1.389 1.242 2.102 7.442 13.137 11.216 30.063 11.216 50.305 0 28.441-7.67 60.894-20.519 86.811-8.778 17.708-19.396 31.269-31.238 40.197 0.483 3.787 0.723 7.871 0.723 12.284 0 25.167-8.115 58.034-20.675 83.732-12.825 26.244-29.532 44.01-48.388 51.92-5.22 25.631-20.443 47.731-44.146 63.533C738.724 975.5 706.43 984.455 672.183 984.455zM308.777 853.546c96.898 12.273 136.407 30.78 171.598 47.263 40.135 18.799 71.836 33.646 191.808 33.646 41.947 0 87.095-18.485 87.095-59.07l0-25 25 0c5.086 0 11.704-5.229 18.157-14.347 8.636-12.201 16.078-30.109 20.419-49.134 4.482-19.646 3.729-32.25 2.663-35.276 1.028 2.918 6.599 8.638 14.813 8.638l0-50c3.622 0 12.72-6.761 21.713-24.901 9.446-19.057 15.315-43.811 15.315-64.603 0-11.012-1.721-20.364-4.72-25.66-1.69-2.983-2.504-2.983-4.285-2.983l0-50c2.658 0 9.304-4.73 15.817-17.425 7.666-14.939 12.243-35.075 12.243-53.861 0-15.182-2.96-28.15-8.333-36.514-4.657-7.25-10.558-10.343-19.729-10.343L656.05 423.976l22.718-37.863c99.954-166.587 87.87-239.164 71.771-267.599-12.663-22.366-34.252-29.661-47.143-30.695-0.4 0.589-0.747 1.268-0.875 1.765 11.264 71.849-32.079 147.493-125.38 218.787-71.842 54.896-170.163 104.301-272.126 136.989L308.777 853.546zM167.749 423.965c-14.357 0-31.047 25.806-31.047 59.076l0 336.293c0 33.268 16.689 59.07 31.047 59.07l87.095 0-0.029-454.439L167.749 423.965z" fill="#272636"></path></g></g></svg>